<svg id="Layer_1" data-name="Layer 1" xmlns="http://www.w3.org/2000/svg" xmlns:xlink="http://www.w3.org/1999/xlink" viewBox="0 0 52.56 58.9"><defs><style>.cls-1{fill:url(#linear-gradient);}.cls-2{fill:#fff;}.cls-3{fill:#034aa6;}</style><linearGradient id="linear-gradient" x1="13.14" y1="-477.55" x2="39.42" y2="-523.07" gradientTransform="matrix(1, 0, 0, -1, 0, -470.86)" gradientUnits="userSpaceOnUse"><stop offset="0" stop-color="#32d9ba"/><stop offset="1" stop-color="#0468bf"/></linearGradient></defs><path class="cls-1" d="M0,17.62V41.28a5.79,5.79,0,0,0,2.9,5L23.39,58.12a5.81,5.81,0,0,0,5.79,0L49.66,46.29a5.8,5.8,0,0,0,2.9-5V17.62a5.78,5.78,0,0,0-2.9-5L29.17.77a5.81,5.81,0,0,0-5.79,0L2.9,12.61A5.76,5.76,0,0,0,0,17.62Z"/><path class="cls-2" d="M45.06,36.56a3.19,3.19,0,0,0-4,.76l-4.69-2.66a11.4,11.4,0,0,0,.41-9.83L39,23.56a3.12,3.12,0,0,0,2.34,1.11,3.1,3.1,0,1,0-2.86-2l-2.18,1.24a11.37,11.37,0,0,0-9.5-6V12.89a3.19,3.19,0,1,0-1.05,0V18a11.39,11.39,0,0,0-9.5,6l-2.17-1.24a3.1,3.1,0,1,0-.51.86l2.25,1.27a11.4,11.4,0,0,0,.41,9.83l-4.69,2.66a3.2,3.2,0,1,0,.52.92l4.7-2.66a11.36,11.36,0,0,0,9,5.11v2.1a3.07,3.07,0,1,0,3.58,3,3.06,3.06,0,0,0-2.57-3v-2.1a11.39,11.39,0,0,0,9-5.11l4.7,2.66a3.19,3.19,0,1,0,4.59-1.67Z"/><path class="cls-3" d="M23,34.18h-.29a.35.35,0,0,1-.38-.33l-.4-2H19.61l-.4,2a.35.35,0,0,1-.38.33H18.6c-.25,0-.37-.14-.33-.4L20.14,25a.35.35,0,0,1,.39-.31h.52a.36.36,0,0,1,.39.31l1.89,8.75C23.37,34,23.25,34.18,23,34.18ZM21.77,31l-1-4.92-1,4.92Z"/><path class="cls-3" d="M28.87,30.76v1.52c0,1.38-.79,2-2.22,2h0c-1.43,0-2.21-.61-2.21-2V26.61c0-1.32.78-2,2.21-2h0c1.43,0,2.22.68,2.22,2v1.3a.31.31,0,0,1-.35.35h-.26a.33.33,0,0,1-.37-.35V26.85c0-1-.36-1.36-1.25-1.36s-1.26.39-1.26,1.36V32c0,1,.37,1.36,1.26,1.36S27.89,33,27.89,32V30.76a.33.33,0,0,1,.37-.35h.26A.31.31,0,0,1,28.87,30.76Z"/><path class="cls-3" d="M33.94,34.18H30.78a.32.32,0,0,1-.35-.36V25.07a.31.31,0,0,1,.35-.35H33.9a.31.31,0,0,1,.35.35v.18a.31.31,0,0,1-.35.35H31.41V29h2.08a.32.32,0,0,1,.35.35v.16a.32.32,0,0,1-.35.35H31.41V33.3h2.53a.32.32,0,0,1,.36.35v.17A.33.33,0,0,1,33.94,34.18Z"/></svg>