<?xml version="1.0" encoding="UTF-8" standalone="no"?>
<!-- Uploaded to: SVG Repo, www.svgrepo.com, Generator: SVG Repo Mixer Tools -->

<svg
   fill="#000000"
   width="800"
   height="800"
   viewBox="0 0 50 50"
   version="1.1"
   id="svg1"
   sodipodi:docname="bottle-icon.svg"
   xmlns:inkscape="http://www.inkscape.org/namespaces/inkscape"
   xmlns:sodipodi="http://sodipodi.sourceforge.net/DTD/sodipodi-0.dtd"
   xmlns="http://www.w3.org/2000/svg"
   xmlns:svg="http://www.w3.org/2000/svg">
  <defs
     id="defs1" />
  <sodipodi:namedview
     id="namedview1"
     pagecolor="#ffffff"
     bordercolor="#000000"
     borderopacity="0.25"
     inkscape:showpageshadow="2"
     inkscape:pageopacity="0.0"
     inkscape:pagecheckerboard="0"
     inkscape:deskcolor="#d1d1d1" />
  <path
     d="m 22,0 c -1.652344,0 -3,1.347656 -3,3 v 2 c 0,1.160156 0.839844,2 2,2 0,0.640625 -0.359375,1.101563 -1,1.21875 -4.703125,1.03125 -8,5.09375 -8,9.875 V 20.125 c 0,1.304688 0.835938,2.429688 2,2.84375 V 37.0625 c -1.164062,0.414063 -2,1.539063 -2,2.84375 V 45 c 0,2.757813 2.242188,5 5,5 h 16 c 2.757813,0 5,-2.242187 5,-5 V 39.90625 C 38,38.601563 37.164063,37.476563 36,37.0625 V 37 H 16 V 35 H 36 V 25 H 16 v -2 h 20 v -0.03125 c 1.164063,-0.414062 2,-1.539062 2,-2.84375 V 18.09375 C 38,13.3125 34.707031,9.257813 29.96875,8.21875 29.363281,8.109375 29,7.640625 29,7 30.160156,7 31,6.160156 31,5 V 3 C 31,1.347656 29.652344,0 28,0 Z"
     id="path1" />
</svg>
