<?xml version="1.0" encoding="UTF-8" standalone="no"?>
<!-- Uploaded to: SVG Repo, www.svgrepo.com, Generator: SVG Repo Mixer Tools -->

<svg
   fill="#000000"
   width="800"
   height="800"
   viewBox="0 0 50 50"
   version="1.1"
   id="svg1"
   xmlns="http://www.w3.org/2000/svg"
   xmlns:svg="http://www.w3.org/2000/svg">
  <defs
     id="defs1">
    <linearGradient
       id="swatch7">
      <stop
         style="stop-color:#000000;stop-opacity:1;"
         offset="0"
         id="stop7" />
    </linearGradient>
  </defs>
  <path
     id="path1"
     d="m 22,0 c -1.652342,0 -3,1.3476577 -3,3 v 2 c 0,1.1601548 0.839845,2 2,2 0,0.6406244 -0.359376,1.1015631 -1,1.21875 -1.953626,0.4283697 -3.658753,1.3853971 -4.991577,2.694092 L 5.0847168,1.2712402 1.9067383,4.6610107 12.514282,14.918335 C 12.183921,15.920069 12,16.98612 12,18.09375 V 20.125 c 0,1.304687 0.835939,2.429688 2,2.84375 V 37.0625 c -1.164061,0.414063 -2,1.539064 -2,2.84375 V 45 c 0,2.75781 2.242191,5 5,5 h 16 c 2.75781,0 5,-2.24219 5,-5 v -5.09375 c 0,-0.126609 -0.01438,-0.249697 -0.02966,-0.372437 l 8.851684,8.559449 2.966065,-3.389893 L 36,31.307373 V 25 H 29.508057 L 27.449463,23 H 36 v -0.03125 c 1.164062,-0.414062 2,-1.539063 2,-2.84375 V 18.09375 C 38,13.312505 34.707026,9.257812 29.96875,8.21875 29.363282,8.1093751 29,7.6406244 29,7 30.160155,7 31,6.1601548 31,5 V 3 C 31,1.3476577 29.652342,0 28,0 Z m -6,23 h 4.871948 l 2.068238,2 H 16 Z m 0,12 h 17.281738 l 2.068238,2 H 16 Z" />
</svg>
