<?xml version="1.0" encoding="UTF-8"?>
<svg id="Layer_2" data-name="Layer 2" xmlns="http://www.w3.org/2000/svg" xmlns:xlink="http://www.w3.org/1999/xlink" viewBox="0 0 128.78 38.28">
  <defs>
    <style>
      .cls-1, .cls-2 {
        fill: none;
        stroke: #fff;
        stroke-miterlimit: 10;
      }

      .cls-3 {
        isolation: isolate;
      }

      .cls-4 {
        fill: #fff;
      }

      .cls-5 {
        fill: #1de9b6;
      }

      .cls-6 {
        fill: url(#New_Gradient_Swatch_1);
      }

      .cls-2 {
        stroke-linecap: round;
        stroke-width: .15px;
      }
    </style>
    <linearGradient id="New_Gradient_Swatch_1" data-name="New Gradient Swatch 1" x1="-1982.45" y1="-466.42" x2="-1982.12" y2="-465.92" gradientTransform="translate(104206.24 27477.14) scale(52.56 58.9)" gradientUnits="userSpaceOnUse">
      <stop offset="0" stop-color="#32d9ba"/>
      <stop offset="1" stop-color="#0468bf"/>
    </linearGradient>
  </defs>
  <g id="Layer_3" data-name="Layer 3">
    <g>
      <g class="cls-3">
        <path class="cls-4" d="M42.67,21.58h-.39c-.28,0-.46-.13-.52-.44l-.55-2.75h-3.17l-.55,2.75c-.05.31-.22.44-.52.44h-.31c-.33,0-.5-.18-.44-.53l2.54-11.94c.05-.29.24-.42.53-.42h.7c.29,0,.48.13.54.42l2.58,11.94c.06.35-.11.53-.44.53ZM40.97,17.22l-1.35-6.71-1.35,6.71h2.69Z"/>
      </g>
      <g class="cls-3">
        <path class="cls-4" d="M49.8,13.17h-.35c-.29,0-.48-.17-.48-.48v-1.22c0-1.24-.5-1.77-1.66-1.77s-1.66.53-1.66,1.77v.9c0,.87.29,1.12,1.16,1.6l1.84,1.01c1,.55,1.66,1.23,1.66,2.32v1.71c0,1.88-1.01,2.69-2.97,2.69h-.04c-1.95,0-2.97-.79-2.97-2.69v-1.66c0-.31.17-.48.48-.48h.35c.29,0,.48.17.48.48v1.36c0,1.22.5,1.81,1.68,1.81s1.68-.59,1.68-1.81v-1.03c0-.87-.33-1.2-1.22-1.7l-1.81-1c-1.12-.63-1.64-1.16-1.64-2.29v-1.55c0-1.81,1.18-2.65,2.95-2.65h.04c1.77,0,2.95.85,2.95,2.65v1.51c0,.31-.17.48-.48.48Z"/>
        <path class="cls-4" d="M58.31,16.91v2.08c0,1.88-1.07,2.73-3.02,2.73h-.04c-1.95,0-3.02-.83-3.02-2.73v-7.74c0-1.81,1.07-2.73,3.02-2.73h.04c1.95,0,3.02.92,3.02,2.73v1.77c0,.31-.17.48-.48.48h-.35c-.31,0-.5-.17-.5-.48v-1.44c0-1.33-.5-1.86-1.71-1.86s-1.71.54-1.71,1.86v7.08c0,1.33.5,1.86,1.71,1.86s1.71-.53,1.71-1.86v-1.75c0-.31.18-.48.5-.48h.35c.31,0,.48.17.48.48Z"/>
        <path class="cls-4" d="M65.24,21.58h-4.31c-.31,0-.48-.17-.48-.48v-11.94c0-.31.17-.48.48-.48h4.26c.31,0,.48.17.48.48v.24c0,.31-.17.48-.48.48h-3.41v4.57h2.84c.31,0,.48.17.48.48v.22c0,.31-.17.48-.48.48h-2.84v4.76h3.47c.31,0,.48.17.48.48v.24c0,.31-.17.48-.48.48Z"/>
      </g>
      <g class="cls-3">
        <path class="cls-5" d="M72.33,9.15v.24c0,.31-.18.48-.48.48h-1.88v11.23c0,.31-.17.48-.48.48h-.37c-.29,0-.48-.17-.48-.48v-11.23h-1.86c-.31,0-.48-.17-.48-.48v-.24c0-.31.17-.48.48-.48h5.07c.29,0,.48.17.48.48Z"/>
        <path class="cls-5" d="M78.01,21.58h-4.31c-.31,0-.48-.17-.48-.48v-11.94c0-.31.17-.48.48-.48h4.26c.31,0,.48.17.48.48v.24c0,.31-.17.48-.48.48h-3.41v4.57h2.84c.31,0,.48.17.48.48v.22c0,.31-.17.48-.48.48h-2.84v4.76h3.47c.31,0,.48.17.48.48v.24c0,.31-.17.48-.48.48Z"/>
        <path class="cls-5" d="M84.72,20.84v.26c0,.31-.17.48-.48.48h-4.04c-.31,0-.48-.17-.48-.48v-11.94c0-.31.17-.48.48-.48h.35c.31,0,.5.17.5.48v11.21h3.19c.31,0,.48.18.48.48Z"/>
        <path class="cls-5" d="M90.52,21.58h-4.31c-.31,0-.48-.17-.48-.48v-11.94c0-.31.17-.48.48-.48h4.26c.31,0,.48.17.48.48v.24c0,.31-.17.48-.48.48h-3.41v4.57h2.84c.31,0,.48.17.48.48v.22c0,.31-.17.48-.48.48h-2.84v4.76h3.47c.31,0,.48.17.48.48v.24c0,.31-.17.48-.48.48Z"/>
        <path class="cls-5" d="M97.07,19.09c-.09.26-.26.39-.5.39-.26,0-.44-.13-.54-.39l-2.56-7.17v9.18c0,.31-.17.48-.48.48h-.28c-.31,0-.48-.17-.48-.48v-11.94c0-.31.17-.48.48-.48h.39c.28,0,.46.13.55.39l2.88,8.15,2.93-8.15c.07-.24.28-.39.55-.39h.42c.31,0,.48.17.48.48v11.94c0,.31-.17.48-.48.48h-.33c-.31,0-.48-.17-.48-.48v-9.18l-2.56,7.17Z"/>
        <path class="cls-5" d="M107.54,21.58h-4.31c-.31,0-.48-.17-.48-.48v-11.94c0-.31.17-.48.48-.48h4.26c.31,0,.48.17.48.48v.24c0,.31-.17.48-.48.48h-3.41v4.57h2.84c.31,0,.48.17.48.48v.22c0,.31-.17.48-.48.48h-2.84v4.76h3.47c.31,0,.48.17.48.48v.24c0,.31-.17.48-.48.48Z"/>
        <path class="cls-5" d="M114.36,9.15v.24c0,.31-.18.48-.48.48h-1.88v11.23c0,.31-.17.48-.48.48h-.37c-.29,0-.48-.17-.48-.48v-11.23h-1.86c-.31,0-.48-.17-.48-.48v-.24c0-.31.17-.48.48-.48h5.07c.29,0,.48.17.48.48Z"/>
        <path class="cls-5" d="M121.25,21.58h-.39c-.28,0-.46-.13-.55-.39l-1.84-5.05h-1.9v4.96c0,.31-.18.48-.5.48h-.35c-.31,0-.48-.17-.48-.48v-11.94c0-.31.17-.48.48-.48h2.64c1.95,0,3.02.88,3.02,2.73v2.01c0,1.35-.57,2.18-1.62,2.53l1.88,5.09c.11.31-.04.55-.39.55ZM116.57,14.96h1.71c1.23,0,1.77-.52,1.77-1.86v-1.36c0-1.35-.54-1.86-1.77-1.86h-1.71v5.09Z"/>
        <path class="cls-5" d="M126.13,21.1c0,.31-.17.48-.48.48h-.37c-.31,0-.48-.17-.48-.48v-4.42l-2.6-7.46c-.13-.33.04-.54.39-.54h.39c.28,0,.46.15.55.41l1.94,6.08,1.95-6.08c.09-.26.28-.41.55-.41h.37c.35,0,.52.2.39.54l-2.6,7.46v4.42Z"/>
      </g>
      <g>
        <g class="cls-3">
          <path class="cls-4" d="M65.61,29.34l.73-5.54c.02-.14.09-.22.21-.22h1.61c.12,0,.17.08.16.22v.11c-.03.15-.11.22-.23.22h-1.29l-.29,2.16h1.07c.12,0,.17.08.16.22v.1c-.03.15-.11.22-.23.22h-1.07l-.33,2.5c-.02.15-.1.22-.22.22h-.13c-.12,0-.17-.08-.16-.22Z"/>
          <path class="cls-4" d="M70.21,23.52h.06c.75,0,1.11.41,1,1.27l-.48,3.59c-.11.86-.58,1.27-1.33,1.26h-.06c-.75,0-1.11-.41-1-1.27l.48-3.59c.11-.86.58-1.26,1.33-1.26ZM69.5,29.08c.48,0,.71-.24.8-.86l.44-3.28c.08-.62-.09-.86-.57-.86s-.71.24-.8.86l-.44,3.28c-.08.62.09.86.57.86Z"/>
          <path class="cls-4" d="M73.95,29.57h-.15c-.11,0-.17-.06-.19-.18l-.4-2.34h-.73s-.3,2.3-.3,2.3c-.02.15-.1.22-.22.22h-.13c-.12,0-.17-.08-.16-.22l.73-5.54c.02-.14.09-.22.21-.22h1.02c.75,0,1.11.41,1,1.27l-.12.93c-.08.62-.35,1.01-.78,1.17l.41,2.36c.02.15-.05.26-.18.26ZM72.55,26.5h.66c.48,0,.71-.24.8-.86l.08-.63c.08-.62-.09-.86-.57-.86h-.66s-.31,2.36-.31,2.36Z"/>
          <path class="cls-4" d="M77.56,27.41l-.13.97c-.12.87-.58,1.27-1.33,1.27h-.01c-.75,0-1.12-.39-1-1.27l.48-3.59c.11-.84.58-1.26,1.33-1.26h.01c.75,0,1.11.43,1,1.26l-.11.82c-.02.15-.09.22-.21.22h-.14c-.12,0-.18-.08-.16-.22l.09-.67c.08-.61-.08-.86-.55-.86s-.69.25-.78.86l-.44,3.28c-.08.62.08.86.55.86s.69-.25.78-.86l.11-.81c.02-.15.1-.22.22-.22h.14c.12,0,.17.08.16.22Z"/>
          <path class="cls-4" d="M80.09,29.57h-1.66c-.12,0-.17-.08-.16-.22l.73-5.54c.02-.14.09-.22.21-.22h1.64c.12,0,.17.08.16.22v.11c-.03.15-.11.22-.23.22h-1.32s-.28,2.12-.28,2.12h1.09c.12,0,.17.08.16.22v.1c-.03.15-.11.22-.23.22h-1.09l-.29,2.21h1.34c.12,0,.17.08.15.22v.11c-.03.15-.11.22-.23.22Z"/>
          <path class="cls-4" d="M84.98,27.41l-.13.97c-.12.87-.58,1.27-1.33,1.27h-.01c-.75,0-1.12-.39-1-1.27l.48-3.59c.11-.84.58-1.26,1.33-1.26h.01c.75,0,1.11.43,1,1.26l-.11.82c-.02.15-.09.22-.21.22h-.14c-.12,0-.18-.08-.16-.22l.09-.67c.08-.61-.08-.86-.55-.86s-.69.25-.78.86l-.44,3.28c-.08.62.08.86.55.86s.69-.25.78-.86l.11-.81c.02-.15.1-.22.22-.22h.14c.12,0,.17.08.16.22Z"/>
          <path class="cls-4" d="M87.6,23.52h.06c.75,0,1.11.41,1,1.27l-.48,3.59c-.11.86-.58,1.27-1.33,1.26h-.06c-.75,0-1.11-.41-1-1.27l.48-3.59c.11-.86.58-1.26,1.33-1.26ZM86.9,29.09c.48,0,.71-.24.8-.86l.44-3.28c.08-.62-.09-.86-.57-.86s-.71.24-.8.86l-.44,3.28c-.08.62.09.86.57.86Z"/>
          <path class="cls-4" d="M91.76,26.8l-.21,1.58c-.12.87-.58,1.27-1.33,1.27h-.06c-.75,0-1.12-.39-1-1.27l.48-3.59c.11-.84.58-1.26,1.33-1.26h.06c.75,0,1.11.43,1,1.26l-.08.58c-.02.15-.09.22-.21.22h-.13c-.12,0-.18-.08-.16-.22l.06-.43c.08-.62-.09-.86-.57-.86-.48,0-.71.24-.8.86l-.44,3.28c-.08.62.09.86.57.86.48,0,.71-.24.8-.86l.15-1.1h-.53c-.12,0-.17-.09-.16-.23v-.09c.03-.14.11-.22.23-.22h.85c.12,0,.17.09.16.22Z"/>
          <path class="cls-4" d="M92.67,29.58h-.11c-.12,0-.18-.08-.16-.22l.73-5.54c.02-.14.09-.22.21-.22h.18c.11,0,.17.06.18.18l.83,4.36.57-4.32c.02-.14.09-.22.21-.22h.11c.12,0,.17.08.16.22l-.73,5.54c-.02.15-.09.22-.21.22h-.15c-.11,0-.17-.06-.19-.18l-.84-4.44-.58,4.4c-.02.15-.09.22-.21.22Z"/>
          <path class="cls-4" d="M96.22,29.58h-.13c-.12,0-.17-.08-.16-.22l.73-5.54c.02-.14.09-.22.21-.22h.13c.12,0,.18.08.16.22l-.73,5.54c-.02.15-.1.22-.22.22Z"/>
          <path class="cls-4" d="M100.19,23.82v.11c-.03.15-.11.22-.23.22h-.73l-.69,5.21c-.02.15-.09.22-.21.22h-.14c-.11,0-.17-.08-.16-.22l.69-5.21h-.72c-.12,0-.18-.08-.16-.22v-.11c.03-.14.11-.22.23-.22h1.96c.11,0,.17.08.16.22Z"/>
          <path class="cls-4" d="M100.45,29.58h-.13c-.12,0-.17-.08-.16-.22l.73-5.54c.02-.14.09-.22.21-.22h.13c.12,0,.18.08.16.22l-.73,5.54c-.02.15-.1.22-.22.22Z"/>
          <path class="cls-4" d="M104.74,23.84l-1.69,5.54c-.04.14-.12.2-.23.2h-.21c-.11,0-.18-.06-.18-.2l-.23-5.54c0-.16.08-.25.2-.25h.15c.11,0,.17.06.17.21l.14,4.74,1.39-4.74c.04-.14.11-.21.23-.21h.12c.13,0,.18.09.14.25Z"/>
          <path class="cls-4" d="M106.6,29.58h-1.66c-.12,0-.18-.08-.16-.22l.73-5.54c.02-.14.09-.22.21-.22h1.64c.12,0,.17.08.16.22v.11c-.03.15-.11.22-.23.22h-1.32l-.28,2.12h1.09c.12,0,.17.08.16.22v.1c-.03.15-.11.22-.23.22h-1.09l-.29,2.21h1.34c.12,0,.17.08.15.22v.11c-.03.15-.11.22-.23.22Z"/>
          <path class="cls-4" d="M110.72,29.58h-1.66c-.12,0-.17-.08-.16-.22l.73-5.54c.02-.14.09-.22.21-.22h1.64c.12,0,.17.08.16.22v.11c-.03.15-.11.22-.23.22h-1.32s-.28,2.12-.28,2.12h1.09c.12,0,.17.08.16.22v.1c-.03.15-.11.22-.23.22h-1.09s-.29,2.2-.29,2.2h1.34c.12,0,.17.08.15.22v.11c-.03.15-.11.22-.23.22Z"/>
          <path class="cls-4" d="M112,29.58h-.11c-.12,0-.18-.08-.16-.22l.73-5.54c.02-.14.09-.22.21-.22h.18c.11,0,.17.06.18.18l.83,4.36.57-4.32c.02-.14.09-.22.21-.22h.11c.12,0,.17.08.16.22l-.73,5.54c-.02.15-.09.22-.21.22h-.15c-.11,0-.17-.06-.19-.18l-.84-4.45-.58,4.4c-.02.15-.09.22-.21.22Z"/>
          <path class="cls-4" d="M117.93,26.81l-.21,1.58c-.12.87-.58,1.27-1.33,1.27h-.06c-.75,0-1.12-.38-1-1.27l.48-3.59c.11-.84.58-1.26,1.33-1.26h.06c.75,0,1.11.43,1,1.26l-.08.58c-.02.15-.09.22-.21.22h-.13c-.12,0-.18-.08-.16-.22l.06-.43c.08-.62-.09-.86-.57-.86s-.71.24-.8.86l-.44,3.28c-.08.62.09.86.57.86s.71-.24.8-.86l.15-1.1h-.53c-.12,0-.17-.09-.16-.23v-.09c.03-.14.11-.22.23-.22h.85c.12,0,.17.09.16.22Z"/>
          <path class="cls-4" d="M118.9,29.59h-.13c-.12,0-.17-.08-.16-.22l.73-5.54c.02-.14.09-.22.21-.22h.13c.12,0,.18.08.16.22l-.73,5.54c-.02.15-.1.22-.22.22Z"/>
          <path class="cls-4" d="M120.43,29.59h-.11c-.12,0-.17-.08-.16-.22l.73-5.54c.02-.14.09-.22.21-.22h.18c.11,0,.17.06.18.18l.83,4.36.57-4.32c.02-.14.09-.22.21-.22h.11c.12,0,.17.08.16.22l-.73,5.54c-.02.15-.09.22-.21.22h-.15c-.11,0-.17-.06-.19-.18l-.84-4.44-.58,4.4c-.02.15-.09.22-.21.22Z"/>
          <path class="cls-4" d="M125.48,29.59h-1.66c-.12,0-.18-.08-.16-.22l.73-5.54c.02-.14.09-.22.21-.22h1.64c.12,0,.17.08.16.22v.11c-.03.15-.11.22-.23.22h-1.32s-.28,2.12-.28,2.12h1.09c.12,0,.17.08.16.22v.1c-.03.15-.11.22-.23.22h-1.09s-.29,2.2-.29,2.2h1.34c.12,0,.17.08.15.22v.11c-.03.15-.11.22-.23.22Z"/>
        </g>
        <g>
          <path class="cls-4" d="M38.78,29.56h-.15c-.11,0-.17-.06-.17-.21l-.04-1.27h-1.22s-.38,1.27-.38,1.27c-.04.14-.11.21-.23.21h-.12c-.13,0-.18-.08-.14-.25l1.71-5.54c.04-.14.12-.2.23-.2h.27c.11,0,.18.06.18.2l.26,5.54c0,.16-.08.25-.2.25ZM38.39,27.54l-.11-3.11-.93,3.11h1.04Z"/>
          <path class="cls-4" d="M40.07,29.56h-.13c-.12,0-.17-.08-.16-.22l.73-5.54c.02-.14.09-.22.21-.22h.13c.12,0,.18.08.16.22l-.73,5.54c-.02.15-.1.22-.22.22Z"/>
          <path class="cls-4" d="M43.63,29.56h-.15c-.11,0-.17-.06-.19-.18l-.4-2.34h-.73s-.3,2.3-.3,2.3c-.02.15-.1.22-.22.22h-.13c-.12,0-.18-.08-.16-.22l.73-5.54c.02-.14.09-.22.21-.22h1.02c.75,0,1.11.41,1,1.27l-.12.93c-.08.62-.35,1.01-.78,1.17l.41,2.36c.02.15-.05.26-.18.26ZM42.23,26.49h.66c.48,0,.71-.24.8-.86l.08-.63c.08-.62-.09-.86-.57-.86h-.66s-.31,2.36-.31,2.36Z"/>
        </g>
        <path class="cls-2" d="M45.56,29.56l.79-5.96"/>
        <g>
          <path class="cls-4" d="M49.52,25.66h-.14c-.11,0-.17-.08-.16-.22l.07-.56c.08-.57-.08-.82-.53-.82s-.67.25-.75.82l-.06.42c-.05.4.04.52.35.74l.65.47c.35.26.56.57.5,1.08l-.11.79c-.12.87-.56,1.25-1.31,1.25h-.01c-.75,0-1.1-.37-.98-1.25l.1-.77c.02-.15.09-.22.21-.22h.13c.11,0,.17.08.15.22l-.08.63c-.08.56.08.84.54.84s.68-.27.76-.84l.06-.48c.05-.4-.05-.56-.37-.79l-.63-.46c-.4-.29-.56-.54-.49-1.06l.09-.72c.11-.84.62-1.23,1.3-1.23h.01c.68,0,1.09.39.97,1.23l-.09.7c-.02.14-.09.22-.21.22Z"/>
          <path class="cls-4" d="M53.01,24.84l-.13,1c-.11.85-.58,1.26-1.33,1.26h-.69l-.3,2.23c-.02.15-.1.22-.22.22h-.13c-.12,0-.18-.08-.16-.22l.73-5.54c.02-.14.09-.22.21-.22h1.02c.75,0,1.11.41,1,1.27ZM52.48,25c.08-.62-.09-.86-.57-.86h-.66l-.32,2.42h.66c.48,0,.71-.24.8-.86l.09-.69Z"/>
          <path class="cls-4" d="M55.28,29.56h-.15c-.11,0-.17-.06-.17-.21l-.04-1.27h-1.22l-.38,1.27c-.04.14-.11.21-.23.21h-.12c-.13,0-.18-.08-.14-.25l1.71-5.54c.04-.14.12-.2.23-.2h.27c.11,0,.18.06.18.2l.26,5.54c0,.16-.08.25-.2.25ZM54.89,27.54l-.11-3.11-.93,3.11h1.04Z"/>
          <path class="cls-4" d="M58.8,27.4l-.13.97c-.12.87-.58,1.27-1.33,1.26h-.01c-.75,0-1.12-.38-1-1.27l.48-3.59c.11-.84.58-1.26,1.33-1.26h.01c.75,0,1.11.43,1,1.27l-.11.82c-.02.15-.09.22-.21.22h-.14c-.12,0-.18-.08-.16-.22l.09-.67c.08-.61-.08-.86-.55-.86-.47,0-.69.25-.78.86l-.44,3.28c-.08.62.08.86.55.86.47,0,.69-.25.78-.86l.11-.81c.02-.15.1-.22.22-.22h.14c.12,0,.17.08.15.22Z"/>
          <path class="cls-4" d="M61.34,29.56h-1.66c-.12,0-.18-.08-.16-.22l.73-5.54c.02-.14.09-.22.21-.22h1.64c.12,0,.17.08.16.22v.11c-.03.15-.11.22-.23.22h-1.31l-.28,2.12h1.09c.12,0,.17.08.16.22v.1c-.03.15-.11.22-.23.22h-1.09l-.29,2.21h1.34c.12,0,.17.08.15.22v.11c-.03.15-.11.22-.23.22Z"/>
        </g>
      </g>
      <g id="Group_213" data-name="Group 213">
        <g id="Group_212" data-name="Group 212">
          <path id="Path_317" data-name="Path 317" class="cls-6" d="M0,11.45v15.38c0,1.34.72,2.58,1.89,3.25l13.32,7.7c1.16.66,2.59.66,3.76,0l13.31-7.7c1.16-.67,1.88-1.91,1.89-3.25v-15.38c0-1.34-.72-2.58-1.89-3.25L18.96.5c-1.17-.67-2.6-.67-3.76,0L1.89,8.2C.72,8.87,0,10.11,0,11.45Z"/>
        </g>
      </g>
      <g>
        <circle class="cls-4" cx="17.06" cy="20.12" r="7.44"/>
        <circle class="cls-4" cx="17.06" cy="6.96" r="2.09"/>
        <circle class="cls-4" cx="27.23" cy="14.93" r="2.09"/>
        <circle class="cls-4" cx="28.65" cy="26.89" r="2.09"/>
        <circle class="cls-4" cx="17.06" cy="31.32" r="2.09"/>
        <circle class="cls-4" cx="5.51" cy="26.89" r="2.09"/>
        <circle class="cls-4" cx="6.93" cy="14.93" r="2.09"/>
        <line class="cls-1" x1="17.06" y1="30.12" x2="17.06" y2="7.57"/>
        <line class="cls-1" x1="27.64" y1="26.45" x2="7.85" y2="15.64"/>
        <line class="cls-1" x1="25.99" y1="15.94" x2="6.12" y2="26.6"/>
      </g>
    </g>
  </g>
</svg>